<?xml version="1.0" encoding="UTF-8" standalone="no"?>
<!-- Created with Inkscape (http://www.inkscape.org/) -->

<svg
   xmlns:dc="http://purl.org/dc/elements/1.1/"
   xmlns:cc="http://creativecommons.org/ns#"
   xmlns:rdf="http://www.w3.org/1999/02/22-rdf-syntax-ns#"
   xmlns:svg="http://www.w3.org/2000/svg"
   xmlns="http://www.w3.org/2000/svg"
   xmlns:sodipodi="http://sodipodi.sourceforge.net/DTD/sodipodi-0.dtd"
   xmlns:inkscape="http://www.inkscape.org/namespaces/inkscape"
   version="1.1"
   id="svg2"
   xml:space="preserve"
   width="400"
   height="18.038185"
   viewBox="0 0 400 18.038185"
   sodipodi:docname="post_separator.svg"
   inkscape:version="0.92.4 5da689c313, 2019-01-14"><metadata
     id="metadata8"><rdf:RDF><cc:Work
         rdf:about=""><dc:format>image/svg+xml</dc:format><dc:type
           rdf:resource="http://purl.org/dc/dcmitype/StillImage" /><dc:title></dc:title></cc:Work></rdf:RDF></metadata><defs
     id="defs6" /><sodipodi:namedview
     pagecolor="#ffffff"
     bordercolor="#666666"
     borderopacity="1"
     objecttolerance="10"
     gridtolerance="10"
     guidetolerance="10"
     inkscape:pageopacity="0"
     inkscape:pageshadow="2"
     inkscape:window-width="1920"
     inkscape:window-height="994"
     id="namedview4"
     showgrid="false"
     fit-margin-top="0"
     fit-margin-left="0"
     fit-margin-right="0"
     fit-margin-bottom="0"
     inkscape:zoom="1.3062462"
     inkscape:cx="395.52205"
     inkscape:cy="-88.527502"
     inkscape:window-x="0"
     inkscape:window-y="28"
     inkscape:window-maximized="1"
     inkscape:current-layer="g10" /><g
     id="g10"
     inkscape:groupmode="layer"
     inkscape:label="317785-P9FDV2-243"
     transform="matrix(1.3333333,0,0,-1.3333333,-200.90719,499.94761)"><path
       inkscape:connector-curvature="0"
       id="path3522"
       style="fill:#2f4f4f;stroke:#2f4f4f;stroke-width:1.33296847;stroke-linecap:butt;stroke-linejoin:miter;stroke-miterlimit:10;stroke-dasharray:none;stroke-opacity:1;fill-opacity:1"
       d="m 170.93825,368.19623 h 259.4843" /><path
       inkscape:connector-curvature="0"
       id="path3526"
       style="fill:#2f4f4f;fill-opacity:1;fill-rule:nonzero;stroke:none;stroke-width:0.66648424"
       d="m 305.87231,368.19623 -5.19191,-5.19191 -5.19191,5.19191 5.19191,5.19191 z" /><path
       inkscape:connector-curvature="0"
       id="path3530"
       style="fill:#2f4f4f;fill-opacity:1;fill-rule:nonzero;stroke:none;stroke-width:0.66648424"
       d="m 315.81625,368.19623 -4.11154,-4.11154 -4.11154,4.11154 4.11154,4.11154 z" /><path
       inkscape:connector-curvature="0"
       id="path3534"
       style="fill:#2f4f4f;fill-opacity:1;fill-rule:nonzero;stroke:none;stroke-width:0.66648424"
       d="m 322.31507,368.19623 -2.65327,-2.65327 -2.65461,2.65327 2.65461,2.65394 z" /><path
       inkscape:connector-curvature="0"
       id="path3538"
       style="fill:#2f4f4f;fill-opacity:1;fill-rule:nonzero;stroke:none;stroke-width:0.66648424"
       d="m 285.54427,368.19623 4.11154,4.11154 4.11154,-4.11154 -4.11154,-4.11154 z" /><path
       inkscape:connector-curvature="0"
       id="path3542"
       style="fill:#2f4f4f;fill-opacity:1;fill-rule:nonzero;stroke:none;stroke-width:0.66648424"
       d="m 279.04572,368.19623 2.65394,2.65394 2.65327,-2.65394 -2.65327,-2.65327 z" /><path
       inkscape:connector-curvature="0"
       id="path3546"
       style="fill:#2f4f4f;stroke:none;stroke-width:1.33296847;stroke-linecap:butt;stroke-linejoin:miter;stroke-miterlimit:10;stroke-dasharray:none;stroke-opacity:1;fill-opacity:1"
       d="m 270.19721,374.48944 -6.29294,-6.29294 6.29294,-6.29295" /><path
       inkscape:connector-curvature="0"
       id="path3550"
       style="fill:#2f4f4f;stroke:none;stroke-width:1.33296847;stroke-linecap:butt;stroke-linejoin:miter;stroke-miterlimit:10;stroke-dasharray:none;stroke-opacity:1;fill-opacity:1"
       d="m 275.58473,374.48944 -6.29294,-6.29294 6.29294,-6.29295" /><path
       inkscape:connector-curvature="0"
       id="path3554"
       style="fill:#2f4f4f;stroke:none;stroke-width:1.33296847;stroke-linecap:butt;stroke-linejoin:miter;stroke-miterlimit:10;stroke-dasharray:none;stroke-opacity:1;fill-opacity:1"
       d="m 331.16359,361.90335 6.29294,6.29294 -6.29294,6.29295" /><path
       inkscape:connector-curvature="0"
       id="path3558"
       style="fill:#2f4f4f;stroke:none;stroke-width:1.33296847;stroke-linecap:butt;stroke-linejoin:miter;stroke-miterlimit:10;stroke-dasharray:none;stroke-opacity:1;fill-opacity:1"
       d="m 325.77639,361.90335 6.29228,6.29294 -6.29228,6.29295" /><path
       inkscape:connector-curvature="0"
       id="path3562"
       style="fill:#2f4f4f;fill-opacity:1;fill-rule:nonzero;stroke:none;stroke-width:0.66648424"
       d="m 185.20388,368.19623 c 0,-1.17701 -0.95441,-2.13142 -2.13142,-2.13142 -1.17701,0 -2.13141,0.95441 -2.13141,2.13142 0,1.17768 0.9544,2.13142 2.13141,2.13142 1.17701,0 2.13142,-0.95374 2.13142,-2.13142" /><path
       inkscape:connector-curvature="0"
       id="path3566"
       style="fill:#2f4f4f;fill-opacity:1;fill-rule:nonzero;stroke:none;stroke-width:0.66648424"
       d="m 178.43913,368.19623 c 0,-1.61822 -1.31231,-2.92986 -2.93053,-2.92986 -1.61822,0 -2.93053,1.31164 -2.93053,2.92986 0,1.61889 1.31231,2.93053 2.93053,2.93053 1.61822,0 2.93053,-1.31164 2.93053,-2.93053" /><path
       inkscape:connector-curvature="0"
       id="path3570"
       style="fill:#2f4f4f;fill-opacity:1;fill-rule:nonzero;stroke:none;stroke-width:0.66648424"
       d="m 167.59376,373.20533 c -5.42252,-4.23817 -16.91337,-5.0093 -16.91337,-5.0093 0,0 11.49085,-0.77045 16.91337,-5.00862 0,0 2.10276,2.77857 5.24123,4.2335 0.66782,0.30992 0.66782,1.24166 0,1.55091 -3.13847,1.4556 -5.24123,4.23351 -5.24123,4.23351" /><path
       inkscape:connector-curvature="0"
       id="path3574"
       style="fill:#2f4f4f;fill-opacity:1;fill-rule:nonzero;stroke:none;stroke-width:0.66648424"
       d="m 416.15725,368.19623 c 0,1.17768 0.95441,2.13142 2.13075,2.13142 1.17768,0 2.13208,-0.95374 2.13208,-2.13142 0,-1.17701 -0.9544,-2.13142 -2.13208,-2.13142 -1.17634,0 -2.13075,0.95441 -2.13075,2.13142" /><path
       inkscape:connector-curvature="0"
       id="path3578"
       style="fill:#2f4f4f;fill-opacity:1;fill-rule:nonzero;stroke:none;stroke-width:0.66648424"
       d="m 422.92167,368.19623 c 0,1.61889 1.31231,2.93053 2.93053,2.93053 1.61822,0 2.93053,-1.31164 2.93053,-2.93053 0,-1.61822 -1.31231,-2.92986 -2.93053,-2.92986 -1.61822,0 -2.93053,1.31164 -2.93053,2.92986" /><path
       inkscape:connector-curvature="0"
       id="path3582"
       style="fill:#2f4f4f;fill-opacity:1;fill-rule:nonzero;stroke:none;stroke-width:0.66648424"
       d="m 433.76703,363.1872 c 5.42252,4.23817 16.91337,5.0093 16.91337,5.0093 0,0 -11.49085,0.77045 -16.91337,5.00862 0,0 -2.10276,-2.7779 -5.24123,-4.2335 -0.66715,-0.30925 -0.66715,-1.241 0,-1.55025 3.13847,-1.4556 5.24123,-4.23417 5.24123,-4.23417" /></g></svg>